<svg width="30" height="30" viewBox="0 0 30 30" fill="none" xmlns="http://www.w3.org/2000/svg">
<path fill-rule="evenodd" clip-rule="evenodd" d="M15 30C23.2842 30 30 23.2842 30 15C30 6.71572 23.2842 0 15 0C6.71572 0 0 6.71572 0 15C0 23.2842 6.71572 30 15 30ZM16.125 10.5C16.125 9.87868 15.6213 9.375 15 9.375C14.3787 9.375 13.875 9.87868 13.875 10.5V13.875H10.5C9.87868 13.875 9.375 14.3787 9.375 15C9.375 15.6213 9.87868 16.125 10.5 16.125H13.875V19.5C13.875 20.1213 14.3787 20.625 15 20.625C15.6213 20.625 16.125 20.1213 16.125 19.5V16.125H19.5C20.1213 16.125 20.625 15.6213 20.625 15C20.625 14.3787 20.1213 13.875 19.5 13.875H16.125V10.5Z" fill="#5E4AE3"/>
</svg>
