<svg width="25" height="25" viewBox="0 0 25 25" fill="none" xmlns="http://www.w3.org/2000/svg">
<path d="M4.69375 22.8537L2.5 7.5H22.5L20.3062 22.8537C20.2211 23.4495 19.9239 23.9945 19.4693 24.3887C19.0146 24.783 18.433 25 17.8312 25H7.16875C6.56697 25 5.98537 24.783 5.53072 24.3887C5.07608 23.9945 4.7789 23.4495 4.69375 22.8537ZM23.75 2.5H17.5V1.25C17.5 0.918479 17.3683 0.600537 17.1339 0.366116C16.8995 0.131696 16.5815 0 16.25 0H8.75C8.41848 0 8.10054 0.131696 7.86612 0.366116C7.6317 0.600537 7.5 0.918479 7.5 1.25V2.5H1.25C0.918479 2.5 0.600537 2.6317 0.366116 2.86612C0.131696 3.10054 0 3.41848 0 3.75C0 4.08152 0.131696 4.39946 0.366116 4.63388C0.600537 4.8683 0.918479 5 1.25 5H23.75C24.0815 5 24.3995 4.8683 24.6339 4.63388C24.8683 4.39946 25 4.08152 25 3.75C25 3.41848 24.8683 3.10054 24.6339 2.86612C24.3995 2.6317 24.0815 2.5 23.75 2.5Z" fill="#FF000F"/>
</svg>
