<svg width="30" height="33" viewBox="0 0 30 33" fill="none" xmlns="http://www.w3.org/2000/svg">
<path fill-rule="evenodd" clip-rule="evenodd" d="M11.1787 0.670938C10 1.70024 10 3.58306 10 7.34871V25.4844C10 29.2501 10 31.1329 11.1787 32.1622C12.3575 33.1915 14.1592 32.8819 17.7627 32.2628L21.644 31.5962C25.6348 30.9104 27.6302 30.5677 28.8152 29.1258C30 27.6841 30 25.5989 30 21.4284V11.4048C30 7.2343 30 5.14908 28.8152 3.70728C27.6302 2.26546 25.6348 1.92267 21.644 1.23705L17.7627 0.570238C14.1592 -0.0488306 12.3575 -0.358365 11.1787 0.670938ZM15 13.41C15.6903 13.41 16.25 13.9869 16.25 14.6986V18.1346C16.25 18.8462 15.6903 19.4231 15 19.4231C14.3097 19.4231 13.75 18.8462 13.75 18.1346V14.6986C13.75 13.9869 14.3097 13.41 15 13.41Z" fill="#706E78"/>
<path d="M7.57862 4.10413C4.14815 4.10905 2.35998 4.18335 1.22038 5.30585C-9.93411e-08 6.50792 0 8.44263 0 12.3121V20.5204C0 24.3898 -9.93411e-08 26.3245 1.22038 27.5266C2.35998 28.649 4.14815 28.7234 7.57862 28.7283C7.49975 27.7051 7.49987 26.5221 7.50002 25.2434V7.58887C7.49987 6.31032 7.49975 5.12737 7.57862 4.10413Z" fill="#706E78"/>
</svg>
