<svg width="30" height="30" viewBox="0 0 30 30" fill="none" xmlns="http://www.w3.org/2000/svg">
<path fill-rule="evenodd" clip-rule="evenodd" d="M15 6C15.8285 6 16.5 6.67158 16.5 7.5V21C16.5 21.8284 15.8285 22.5 15 22.5C14.1715 22.5 13.5 21.8284 13.5 21V7.5C13.5 6.67158 14.1715 6 15 6ZM21 9C21.8284 9 22.5 9.67158 22.5 10.5V21C22.5 21.8284 21.8284 22.5 21 22.5C20.1716 22.5 19.5 21.8284 19.5 21V10.5C19.5 9.67158 20.1716 9 21 9ZM10.5 13.5C10.5 12.6715 9.82843 12 9 12C8.17158 12 7.5 12.6715 7.5 13.5V21C7.5 21.8284 8.17158 22.5 9 22.5C9.82842 22.5 10.5 21.8284 10.5 21V13.5ZM7.8751 0.58173C9.82317 0.1488 12.1865 0 15 0C17.8135 0 20.1768 0.1488 22.1249 0.58173C24.09 1.01846 25.7232 1.764 26.9796 3.02037C28.236 4.27674 28.9815 5.91003 29.4183 7.8751C29.8512 9.82317 30 12.1865 30 15C30 17.8135 29.8512 20.1768 29.4183 22.1249C28.9815 24.09 28.236 25.7232 26.9796 26.9796C25.7232 28.236 24.09 28.9815 22.1249 29.4183C20.1768 29.8512 17.8135 30 15 30C12.1865 30 9.82317 29.8512 7.8751 29.4183C5.91003 28.9815 4.27674 28.236 3.02037 26.9796C1.764 25.7232 1.01846 24.09 0.58173 22.1249C0.1488 20.1768 0 17.8135 0 15C0 12.1865 0.1488 9.82317 0.58173 7.8751C1.01846 5.91003 1.764 4.27674 3.02037 3.02037C4.27674 1.764 5.91003 1.01846 7.8751 0.58173Z" fill="currentColor"/>
</svg>
