<svg width="38" height="30" viewBox="0 0 38 30" fill="none" xmlns="http://www.w3.org/2000/svg">
<path fill-rule="evenodd" clip-rule="evenodd" d="M38 2.14286C38 2.71118 37.7776 3.25622 37.3817 3.65809C36.9858 4.05995 36.4488 4.28571 35.8889 4.28571H2.11111C1.55121 4.28571 1.01424 4.05995 0.61833 3.65809C0.22242 3.25622 0 2.71118 0 2.14286C0 1.57454 0.22242 1.02949 0.61833 0.627628C1.01424 0.225765 1.55121 0 2.11111 0H35.8889C36.4488 0 36.9858 0.225765 37.3817 0.627628C37.7776 1.02949 38 1.57454 38 2.14286ZM38 15C38 15.5683 37.7776 16.1134 37.3817 16.5152C36.9858 16.9171 36.4488 17.1429 35.8889 17.1429H2.11111C1.55121 17.1429 1.01424 16.9171 0.61833 16.5152C0.22242 16.1134 0 15.5683 0 15C0 14.4317 0.22242 13.8866 0.61833 13.4848C1.01424 13.0829 1.55121 12.8571 2.11111 12.8571H35.8889C36.4488 12.8571 36.9858 13.0829 37.3817 13.4848C37.7776 13.8866 38 14.4317 38 15ZM35.8889 30C36.4488 30 36.9858 29.7742 37.3817 29.3724C37.7776 28.9705 38 28.4255 38 27.8571C38 27.2888 37.7776 26.7438 37.3817 26.3419C36.9858 25.94 36.4488 25.7143 35.8889 25.7143H2.11111C1.55121 25.7143 1.01424 25.94 0.61833 26.3419C0.22242 26.7438 0 27.2888 0 27.8571C0 28.4255 0.22242 28.9705 0.61833 29.3724C1.01424 29.7742 1.55121 30 2.11111 30H35.8889Z" fill="#706E78"/>
</svg>
