<svg width="113" height="26" viewBox="0 0 113 26" fill="none" xmlns="http://www.w3.org/2000/svg">
<path d="M7.78428 21.824H14.1203V26H4.97628C3.39228 24.512 2.19228 22.628 1.37628 20.348C0.560283 18.068 0.152283 15.728 0.152283 13.328C0.152283 10.904 0.608283 8.57599 1.52028 6.34399C2.43228 4.11199 3.78828 2.26399 5.58828 0.799988H14.1203V5.11999H7.78428C7.13628 5.86399 6.57228 7.06399 6.09228 8.71999C5.63628 10.376 5.40828 11.96 5.40828 13.472C5.40828 14.984 5.63628 16.568 6.09228 18.224C6.57228 19.88 7.13628 21.08 7.78428 21.824Z" fill="#5E4AE3"/>
<path d="M27.4892 26L26.7332 22.004H21.0452L20.2892 26H15.3932L20.2532 0.799988H27.7052L32.3132 26H27.4892ZM23.8172 5.47999L22.4132 13.868L21.6212 18.152H26.1212L25.2932 13.868L23.8892 5.47999H23.8172Z" fill="#5E4AE3"/>
<path d="M36.7137 0.799988H45.3537V5.11999H38.4417L38.3337 5.33599L44.0937 15.848C45.2697 17.96 45.8577 19.568 45.8577 20.672C45.8577 23.096 45.0537 24.872 43.4457 26H33.9057V21.824H41.3577L41.4657 21.608L34.9857 9.97999C34.0497 8.29999 33.5817 6.93199 33.5817 5.87599C33.5817 3.37999 34.6257 1.68799 36.7137 0.799988Z" fill="#5E4AE3"/>
<path d="M54.8233 21.824H61.1593V26H52.0153C50.4313 24.512 49.2313 22.628 48.4153 20.348C47.5993 18.068 47.1913 15.728 47.1913 13.328C47.1913 10.904 47.6473 8.57599 48.5593 6.34399C49.4713 4.11199 50.8273 2.26399 52.6273 0.799988H61.1593V5.11999H54.8233C54.1753 5.86399 53.6113 7.06399 53.1313 8.71999C52.6753 10.376 52.4473 11.96 52.4473 13.472C52.4473 14.984 52.6753 16.568 53.1313 18.224C53.6113 19.88 54.1753 21.08 54.8233 21.824Z" fill="#5E4AE3"/>
<path d="M74.5283 26L73.7723 22.004H68.0843L67.3283 26H62.4323L67.2923 0.799988H74.7443L79.3523 26H74.5283ZM70.8563 5.47999L69.4523 13.868L68.6603 18.152H73.1603L72.3323 13.868L70.9283 5.47999H70.8563Z" fill="#5E4AE3"/>
<path d="M86.3447 21.824H89.5847C90.2567 20.984 90.7847 19.76 91.1687 18.152C91.5767 16.544 91.7807 14.948 91.7807 13.364C91.7807 9.59599 91.0727 6.84799 89.6567 5.11999H86.3447V21.824ZM81.4487 26V0.799988H91.8887C95.2967 3.82399 97.0007 7.92799 97.0007 13.112C97.0007 18.272 95.4047 22.568 92.2127 26H81.4487Z" fill="#5E4AE3"/>
<path d="M99.8003 26V0.799988H112.724V5.11999H104.732V11.132H111.86V15.308H104.732V21.824H112.868V26H99.8003Z" fill="#5E4AE3"/>
</svg>
