<svg width="500" height="500" viewBox="0 0 500 500" fill="none" xmlns="http://www.w3.org/2000/svg">
<path d="M220.85 338.13C246.664 338.13 267.59 326.046 267.59 311.14C267.59 296.234 246.664 284.15 220.85 284.15C195.036 284.15 174.11 296.234 174.11 311.14C174.11 326.046 195.036 338.13 220.85 338.13Z" fill="#D0CAF7"/>
<path d="M401.18 388C426.31 402.51 426.31 426 401.18 440.54C376.05 455.08 335.3 455.06 310.18 440.54C285.06 426.02 285.05 402.54 310.18 387.99C335.31 373.44 376.05 373.47 401.18 388Z" fill="#D0CAF7"/>
<path d="M166.48 292.61L298.48 368.8C299.008 369.103 299.446 369.54 299.751 370.067C300.056 370.594 300.216 371.191 300.216 371.8C300.216 372.409 300.056 373.006 299.751 373.533C299.446 374.06 299.008 374.497 298.48 374.8L220.6 419.8C218.986 420.733 217.154 421.224 215.29 421.224C213.426 421.224 211.594 420.733 209.98 419.8L78 343.56C77.4698 343.259 77.0288 342.823 76.722 342.296C76.4153 341.769 76.2537 341.17 76.2537 340.56C76.2537 339.95 76.4153 339.351 76.722 338.824C77.0288 338.297 77.4698 337.861 78 337.56L155.89 292.56C157.504 291.638 159.333 291.157 161.192 291.166C163.051 291.175 164.874 291.673 166.48 292.61Z" fill="#D0CAF7"/>
<path d="M115.61 349.3L207.09 403.69C207.418 403.882 207.689 404.157 207.878 404.487C208.067 404.817 208.166 405.19 208.166 405.57C208.166 405.95 208.067 406.323 207.878 406.653C207.689 406.983 207.418 407.258 207.09 407.45L158.09 435.72C157.076 436.304 155.926 436.612 154.755 436.612C153.584 436.612 152.434 436.304 151.42 435.72L60.0001 381.33C59.6699 381.14 59.3956 380.866 59.2049 380.536C59.0142 380.206 58.9138 379.831 58.9138 379.45C58.9138 379.069 59.0142 378.694 59.2049 378.364C59.3956 378.034 59.6699 377.76 60.0001 377.57L109 349.3C110.007 348.727 111.146 348.425 112.305 348.425C113.464 348.425 114.603 348.727 115.61 349.3Z" fill="#D0CAF7"/>
<path d="M283.7 238.21L440.7 328.81C441.814 329.453 443.078 329.792 444.365 329.792C445.652 329.792 446.916 329.453 448.03 328.81L457.89 323.12C458.277 322.898 458.598 322.579 458.821 322.193C459.044 321.808 459.162 321.37 459.162 320.925C459.162 320.48 459.044 320.042 458.821 319.657C458.598 319.271 458.277 318.952 457.89 318.73L301 228.19C299.858 227.527 298.561 227.178 297.24 227.178C295.919 227.178 294.622 227.527 293.48 228.19L283.72 233.82C283.333 234.04 283.01 234.358 282.785 234.742C282.56 235.127 282.44 235.564 282.438 236.009C282.436 236.455 282.552 236.893 282.773 237.279C282.995 237.666 283.315 237.987 283.7 238.21Z" fill="#E0E0E0"/>
<path d="M295.29 233.61L447.85 321.69C448.395 322.006 449.014 322.173 449.644 322.174C450.274 322.175 450.894 322.01 451.44 321.696C451.986 321.382 452.44 320.929 452.756 320.384C453.072 319.839 453.239 319.22 453.24 318.59V117.65C453.237 115.935 452.784 114.251 451.926 112.766C451.068 111.282 449.835 110.048 448.35 109.19L302.58 25C301.841 24.5734 301.003 24.3488 300.15 24.3489C299.297 24.3489 298.458 24.5736 297.72 25.0003C296.981 25.427 296.367 26.0406 295.941 26.7796C295.514 27.5186 295.29 28.3568 295.29 29.21V233.61Z" fill="#6A55EB"/>
<path opacity="0.5" d="M295.29 233.61L447.85 321.69C448.395 322.006 449.014 322.173 449.644 322.174C450.274 322.175 450.894 322.01 451.44 321.696C451.986 321.382 452.44 320.929 452.756 320.384C453.072 319.839 453.239 319.22 453.24 318.59V117.65C453.237 115.935 452.784 114.251 451.926 112.766C451.068 111.282 449.835 110.048 448.35 109.19L302.58 25C301.841 24.5734 301.003 24.3488 300.15 24.3489C299.297 24.3489 298.458 24.5736 297.72 25.0003C296.981 25.427 296.367 26.0406 295.941 26.7796C295.514 27.5186 295.29 28.3568 295.29 29.21V233.61Z" fill="white"/>
<path d="M299.61 242.84L439.5 323.6V119.41L299.61 38.65V242.84Z" fill="#6A55EB"/>
<path opacity="0.8" d="M299.61 242.84L439.5 323.6V119.41L299.61 38.65V242.84Z" fill="white"/>
<path d="M285.95 226.53L425.84 307.29L439.5 119.41L299.61 38.65L285.95 226.53Z" fill="#6A55EB"/>
<path opacity="0.9" d="M285.95 226.53L425.84 307.29L439.5 119.41L299.61 38.65L285.95 226.53Z" fill="white"/>
<path d="M299.61 38.65L439.5 119.41L444.8 116.35L304.91 35.58L299.61 38.65Z" fill="#6A55EB"/>
<path opacity="0.7" d="M299.61 38.65L439.5 119.41L444.8 116.35L304.91 35.58L299.61 38.65Z" fill="white"/>
<path d="M444.8 116.35V319.76L439.5 323.6V119.41L444.8 116.35Z" fill="#6A55EB"/>
<path d="M444.8 116.35V319.76L439.5 323.6V119.41L444.8 116.35Z" fill="#6A55EB"/>
<path opacity="0.7" d="M444.8 116.35V319.76L439.5 323.6V119.41L444.8 116.35Z" fill="white"/>
<path d="M401 145.91C400.877 145.925 400.753 145.925 400.63 145.91C400.419 145.853 400.224 145.747 400.061 145.601C399.898 145.455 399.771 145.273 399.69 145.07L395.53 134.62C395.395 134.274 395.403 133.888 395.551 133.548C395.699 133.207 395.975 132.938 396.32 132.8C396.491 132.73 396.673 132.695 396.857 132.697C397.042 132.698 397.224 132.737 397.393 132.809C397.563 132.882 397.716 132.987 397.844 133.12C397.972 133.252 398.073 133.408 398.14 133.58L401.6 142.27L421.51 126.46C421.654 126.34 421.822 126.251 422.001 126.197C422.181 126.143 422.37 126.126 422.557 126.146C422.743 126.167 422.924 126.225 423.088 126.316C423.251 126.408 423.395 126.532 423.51 126.68C423.627 126.826 423.714 126.993 423.767 127.172C423.819 127.352 423.836 127.54 423.815 127.726C423.795 127.911 423.738 128.091 423.648 128.255C423.558 128.419 423.436 128.563 423.29 128.68L401.9 145.68C401.635 145.858 401.317 145.939 401 145.91Z" fill="#6A55EB"/>
<path d="M377.75 123.38C377.505 123.38 377.264 123.318 377.05 123.2L318.15 89.2C317.828 89.013 317.593 88.7057 317.497 88.3456C317.402 87.9855 317.453 87.6022 317.64 87.28C317.827 86.9577 318.134 86.723 318.494 86.6273C318.854 86.5317 319.238 86.583 319.56 86.77L378.46 120.77C378.731 120.923 378.944 121.162 379.065 121.449C379.185 121.736 379.206 122.056 379.125 122.356C379.043 122.657 378.864 122.922 378.615 123.109C378.366 123.296 378.061 123.395 377.75 123.39V123.38Z" fill="#6A55EB"/>
<path d="M376.4 135.47C376.154 135.471 375.912 135.405 375.7 135.28L316.8 101.28C316.478 101.093 316.243 100.786 316.147 100.426C316.052 100.066 316.103 99.6822 316.29 99.36C316.477 99.0378 316.784 98.803 317.144 98.7073C317.504 98.6117 317.888 98.663 318.21 98.85L377.11 132.85C377.381 133.003 377.594 133.242 377.715 133.529C377.835 133.816 377.856 134.136 377.775 134.436C377.693 134.737 377.514 135.002 377.265 135.189C377.016 135.376 376.711 135.475 376.4 135.47Z" fill="#6A55EB"/>
<path d="M410.39 161.22C409.752 161.22 409.125 161.054 408.57 160.74L390.36 150.67C389.047 149.95 387.97 148.866 387.26 147.547C386.55 146.229 386.238 144.733 386.36 143.24L388.09 122.93C388.148 122.302 388.362 121.699 388.714 121.175C389.065 120.652 389.542 120.224 390.101 119.933C390.66 119.641 391.284 119.495 391.914 119.507C392.545 119.518 393.162 119.688 393.71 120L412.86 131.06C413.769 131.59 414.511 132.363 415.004 133.293C415.497 134.222 415.721 135.27 415.65 136.32L414.09 157.73C414.043 158.354 413.84 158.955 413.499 159.48C413.158 160.004 412.691 160.434 412.14 160.73C411.605 161.032 411.004 161.2 410.39 161.22ZM391.88 122.31C391.643 122.309 391.414 122.397 391.238 122.556C391.062 122.715 390.952 122.934 390.93 123.17L389.2 143.48C389.118 144.428 389.312 145.379 389.759 146.218C390.207 147.058 390.888 147.75 391.72 148.21L409.93 158.29C410.071 158.362 410.227 158.399 410.385 158.399C410.543 158.399 410.699 158.362 410.84 158.29C410.979 158.215 411.097 158.106 411.182 157.973C411.268 157.84 411.319 157.688 411.33 157.53L412.89 136.12C412.924 135.597 412.813 135.075 412.567 134.612C412.322 134.15 411.952 133.764 411.5 133.5L392.34 122.44C392.202 122.354 392.043 122.308 391.88 122.31Z" fill="#6A55EB"/>
<path d="M373.59 173.42C373.344 173.42 373.102 173.354 372.89 173.23L313.99 139.23C313.668 139.043 313.433 138.736 313.337 138.376C313.242 138.016 313.293 137.632 313.48 137.31C313.667 136.988 313.974 136.753 314.334 136.657C314.694 136.562 315.078 136.613 315.4 136.8L374.3 170.8C374.572 170.953 374.784 171.192 374.905 171.479C375.025 171.766 375.046 172.086 374.965 172.386C374.883 172.687 374.704 172.952 374.455 173.139C374.206 173.326 373.902 173.425 373.59 173.42Z" fill="#6A55EB"/>
<path d="M372.24 185.5C371.994 185.5 371.752 185.434 371.54 185.31L312.64 151.31C312.48 151.217 312.341 151.094 312.229 150.948C312.117 150.801 312.035 150.634 311.987 150.456C311.94 150.277 311.928 150.091 311.953 149.909C311.977 149.726 312.037 149.55 312.13 149.39C312.222 149.23 312.346 149.091 312.492 148.979C312.639 148.867 312.806 148.785 312.984 148.737C313.163 148.69 313.348 148.678 313.531 148.703C313.714 148.727 313.89 148.787 314.05 148.88L372.95 182.88C373.221 183.033 373.434 183.272 373.555 183.559C373.675 183.846 373.696 184.166 373.615 184.466C373.533 184.767 373.354 185.032 373.105 185.219C372.856 185.406 372.551 185.505 372.24 185.5Z" fill="#6A55EB"/>
<path d="M406.23 211.25C405.594 211.247 404.968 211.085 404.41 210.78L386.2 200.7C384.886 199.981 383.808 198.897 383.098 197.578C382.388 196.259 382.076 194.763 382.2 193.27L384 173C384.055 172.371 384.268 171.766 384.619 171.241C384.97 170.716 385.447 170.287 386.007 169.995C386.567 169.703 387.192 169.557 387.823 169.57C388.455 169.583 389.073 169.755 389.62 170.07L408.77 181.13C409.679 181.658 410.421 182.429 410.914 183.357C411.408 184.284 411.631 185.332 411.56 186.38L410 207.77C409.929 208.714 409.505 209.598 408.812 210.243C408.118 210.888 407.207 211.248 406.26 211.25H406.23ZM387.72 172.34C387.567 172.342 387.416 172.38 387.28 172.45C387.137 172.522 387.014 172.63 386.925 172.763C386.836 172.896 386.782 173.05 386.77 173.21L385 193.51C384.918 194.458 385.112 195.409 385.559 196.248C386.007 197.088 386.688 197.78 387.52 198.24L405.73 208.32C405.868 208.4 406.025 208.442 406.185 208.442C406.345 208.442 406.502 208.4 406.64 208.32C406.781 208.248 406.901 208.139 406.987 208.006C407.073 207.873 407.123 207.719 407.13 207.56L408.69 186.15C408.725 185.627 408.613 185.105 408.367 184.642C408.122 184.18 407.752 183.794 407.3 183.53L388.14 172.47C388.014 172.391 387.869 172.346 387.72 172.34Z" fill="#6A55EB"/>
<path d="M397.37 195.48C397.247 195.495 397.123 195.495 397 195.48C396.789 195.423 396.594 195.317 396.431 195.171C396.268 195.025 396.141 194.843 396.06 194.64L391.9 184.2C391.792 183.86 391.819 183.491 391.974 183.17C392.129 182.848 392.401 182.598 392.734 182.471C393.067 182.343 393.436 182.347 393.767 182.483C394.097 182.618 394.363 182.875 394.51 183.2L398 191.8L417.88 176C418.174 175.802 418.532 175.722 418.882 175.776C419.233 175.83 419.55 176.014 419.771 176.292C419.992 176.569 420.1 176.92 420.074 177.273C420.047 177.627 419.889 177.958 419.63 178.2L398.24 195.2C397.989 195.388 397.683 195.487 397.37 195.48Z" fill="#6A55EB"/>
<path d="M369.44 223.45C369.194 223.451 368.952 223.385 368.74 223.26L309.83 189.26C309.521 189.066 309.299 188.76 309.211 188.405C309.123 188.051 309.176 187.676 309.359 187.36C309.541 187.044 309.84 186.811 310.19 186.711C310.541 186.61 310.917 186.649 311.24 186.82L370.14 220.82C370.411 220.972 370.623 221.21 370.744 221.497C370.864 221.783 370.886 222.101 370.806 222.401C370.726 222.702 370.548 222.966 370.301 223.155C370.053 223.343 369.751 223.443 369.44 223.44V223.45Z" fill="#6A55EB"/>
<path d="M368.09 235.54C367.841 235.54 367.596 235.474 367.38 235.35L308.48 201.35C308.32 201.257 308.181 201.134 308.069 200.988C307.957 200.841 307.875 200.674 307.827 200.496C307.78 200.317 307.768 200.131 307.793 199.949C307.817 199.766 307.877 199.59 307.97 199.43C308.063 199.27 308.186 199.131 308.332 199.019C308.479 198.907 308.646 198.825 308.824 198.777C309.003 198.73 309.189 198.718 309.371 198.743C309.554 198.767 309.73 198.827 309.89 198.92L368.79 232.92C369.058 233.075 369.267 233.314 369.386 233.6C369.504 233.886 369.525 234.203 369.446 234.503C369.366 234.802 369.19 235.067 368.945 235.256C368.7 235.445 368.4 235.548 368.09 235.55V235.54Z" fill="#6A55EB"/>
<path d="M402.07 261.28C401.436 261.283 400.812 261.121 400.26 260.81L382 250.73C380.687 250.01 379.61 248.926 378.9 247.607C378.19 246.289 377.878 244.793 378 243.3L379.74 223C379.792 222.371 380.002 221.766 380.352 221.242C380.702 220.717 381.18 220.29 381.74 220C382.3 219.709 382.924 219.564 383.555 219.578C384.186 219.592 384.803 219.765 385.35 220.08L404.5 231.14C405.408 231.671 406.149 232.444 406.64 233.374C407.131 234.303 407.353 235.351 407.28 236.4L405.72 257.81C405.672 258.433 405.468 259.034 405.127 259.558C404.786 260.082 404.32 260.513 403.77 260.81C403.248 261.098 402.666 261.259 402.07 261.28ZM383.56 222.38C383.408 222.379 383.257 222.414 383.12 222.48C382.981 222.557 382.862 222.666 382.773 222.798C382.684 222.93 382.628 223.082 382.61 223.24L380.88 243.54C380.797 244.488 380.99 245.439 381.438 246.279C381.885 247.119 382.567 247.811 383.4 248.27L401.62 258.35C401.757 258.429 401.912 258.471 402.07 258.473C402.228 258.475 402.384 258.436 402.523 258.361C402.663 258.286 402.78 258.177 402.865 258.044C402.951 257.91 403 257.758 403.01 257.6L404.57 236.18C404.607 235.657 404.496 235.134 404.25 234.671C404.005 234.208 403.634 233.823 403.18 233.56L384 222.5C383.865 222.427 383.714 222.386 383.56 222.38Z" fill="#6A55EB"/>
<path d="M401.09 107.85C400.038 107.854 399.003 107.582 398.09 107.06L373 92.89C372.722 92.7335 372.507 92.4864 372.39 92.19C371.178 89.0604 369.013 86.3912 366.2 84.56C365.2 83.96 362.58 82.77 361.2 84.78C360.997 85.0616 360.697 85.2588 360.358 85.3344C360.019 85.4099 359.664 85.3586 359.36 85.19L337.74 73.05C336.525 72.3485 335.516 71.3399 334.814 70.1253C334.112 68.9108 333.741 67.5329 333.74 66.13V50.75C333.741 49.0811 334.22 47.4475 335.121 46.0423C336.021 44.637 337.305 43.5189 338.82 42.82C339.024 42.7257 339.248 42.6819 339.472 42.6924C339.697 42.7028 339.916 42.7672 340.11 42.88L409.57 83.24C409.796 83.3691 409.981 83.5585 410.105 83.7869C410.229 84.0153 410.287 84.2737 410.272 84.5332C410.258 84.7927 410.171 85.0431 410.022 85.2562C409.874 85.4693 409.669 85.6368 409.43 85.74C408.77 86.0296 408.208 86.5055 407.814 87.1093C407.419 87.7132 407.21 88.4188 407.21 89.14V101.76C407.219 102.822 406.947 103.868 406.42 104.791C405.893 105.713 405.13 106.479 404.21 107.01C403.265 107.566 402.187 107.856 401.09 107.85ZM374.76 90.68L399.48 104.61C399.978 104.892 400.541 105.038 401.113 105.034C401.684 105.03 402.245 104.876 402.739 104.588C403.233 104.299 403.642 103.886 403.927 103.39C404.211 102.894 404.361 102.332 404.36 101.76V89.14C404.359 87.4302 405.031 85.7886 406.23 84.57L339.33 45.7C338.48 46.2314 337.776 46.9674 337.283 47.8409C336.791 48.7143 336.525 49.6973 336.51 50.7V66.13C336.511 67.0393 336.753 67.9322 337.211 68.7175C337.67 69.5028 338.328 70.1524 339.12 70.6L359.69 82.19C361.64 80.47 364.59 80.41 367.57 82.13C370.793 84.168 373.305 87.1551 374.76 90.68Z" fill="#6A55EB"/>
<path d="M228.11 268.36L216.11 341.74C216.022 342.276 215.747 342.764 215.333 343.115C214.919 343.467 214.393 343.66 213.85 343.66C213.528 343.661 213.209 343.593 212.915 343.462C212.621 343.331 212.357 343.139 212.142 342.9C211.927 342.66 211.765 342.378 211.666 342.071C211.568 341.764 211.535 341.44 211.57 341.12L220.01 265.42L228.11 268.36Z" fill="#263238"/>
<path d="M186.6 243.68L174.6 317.06C174.514 317.595 174.241 318.082 173.829 318.434C173.416 318.786 172.892 318.98 172.35 318.98C172.028 318.981 171.709 318.913 171.415 318.782C171.121 318.651 170.857 318.459 170.642 318.22C170.427 317.98 170.265 317.698 170.166 317.391C170.068 317.084 170.035 316.76 170.07 316.44L178.51 240.73L186.6 243.68Z" fill="#263238"/>
<path d="M246.57 251.2L258.44 314.44C258.55 314.92 258.839 315.34 259.248 315.614C259.658 315.888 260.156 315.995 260.642 315.913C261.128 315.831 261.564 315.567 261.861 315.174C262.158 314.781 262.294 314.29 262.24 313.8L253.48 255.19L246.57 251.2Z" fill="#263238"/>
<path d="M204.59 227.61L216.39 290.46C216.472 290.903 216.708 291.303 217.055 291.59C217.402 291.877 217.839 292.033 218.29 292.03C218.567 292.028 218.84 291.968 219.091 291.852C219.342 291.736 219.566 291.568 219.747 291.359C219.928 291.149 220.062 290.904 220.14 290.638C220.218 290.373 220.239 290.094 220.2 289.82L211.5 231.59L204.59 227.61Z" fill="#263238"/>
<path d="M208 222.83C210.733 221.631 213.099 219.729 214.855 217.316C216.612 214.904 217.698 212.069 218 209.1C219.91 189.85 226.69 150.17 249.68 163.38C278.04 179.68 267.89 227.03 263.76 242.21C262.837 245.63 261.042 248.752 258.55 251.27C253.42 256.44 242.81 265.33 224.77 272.89C222.553 273.823 220.083 273.971 217.77 273.31C208.77 270.76 185.39 262.91 173.71 247.98C173.047 247.133 172.747 246.058 172.874 244.99C173.002 243.922 173.547 242.947 174.39 242.28C179.08 238.52 189.76 231 208 222.83Z" fill="#6A55EB"/>
<path opacity="0.5" d="M208 222.83C210.733 221.631 213.099 219.729 214.855 217.316C216.612 214.904 217.698 212.069 218 209.1C219.91 189.85 226.69 150.17 249.68 163.38C278.04 179.68 267.89 227.03 263.76 242.21C262.837 245.63 261.042 248.752 258.55 251.27C253.42 256.44 242.81 265.33 224.77 272.89C222.553 273.823 220.083 273.971 217.77 273.31C208.77 270.76 185.39 262.91 173.71 247.98C173.047 247.133 172.747 246.058 172.874 244.99C173.002 243.922 173.547 242.947 174.39 242.28C179.08 238.52 189.76 231 208 222.83Z" fill="black"/>
<path d="M172.83 245.27C172.77 246.246 173.068 247.21 173.67 247.98C174.3 248.78 174.96 249.55 175.67 250.31C176.04 250.72 176.43 251.13 176.82 251.53C177.21 251.93 177.61 252.32 178.01 252.7L179.24 253.84C179.66 254.22 180.09 254.59 180.52 254.96C187.14 260.52 195.18 264.75 202.36 267.81L203.69 268.36L203.83 268.42L205.05 268.91L205.27 269L206.41 269.45L206.67 269.55L207.74 269.95L208.04 270.06C208.38 270.19 208.7 270.31 209.04 270.42L209.39 270.55L210.3 270.87L210.68 271L211.52 271.29L211.92 271.43L212.68 271.68L213.11 271.82L213.8 272.04L214.26 272.19L214.85 272.37L215.35 272.53L215.84 272.68L216.45 272.86L216.76 272.95L217.62 273.2C219.933 273.861 222.403 273.713 224.62 272.78C242.62 265.22 253.27 256.33 258.4 251.16C260.892 248.642 262.687 245.52 263.61 242.1C267.74 226.92 277.89 179.57 249.53 163.27C249.02 162.98 248.53 162.72 248.04 162.49C247.937 162.431 247.83 162.377 247.72 162.33C247.24 162.1 246.77 161.9 246.31 161.72L246.17 161.67C245.72 161.5 245.29 161.36 244.85 161.23L244.65 161.17C244.19 161.04 243.73 160.94 243.28 160.85H243.16C242.263 160.686 241.351 160.619 240.44 160.65C239.571 160.68 238.708 160.814 237.87 161.05C242.4 159.05 247.93 159.14 253.41 162.29C281.78 178.59 271.62 225.93 267.5 241.12L266.8 243.72C265.428 249.02 262.332 253.713 258 257.06L250.64 262.69C242.681 268.697 233.979 273.652 224.75 277.43C222.533 278.362 220.065 278.513 217.75 277.86C208.75 275.31 185.36 267.47 173.68 252.53C173.182 251.892 172.889 251.118 172.84 250.31V245.31L172.83 245.27Z" fill="#6A55EB"/>
<path opacity="0.6" d="M172.83 245.27C172.77 246.246 173.068 247.21 173.67 247.98C174.3 248.78 174.96 249.55 175.67 250.31C176.04 250.72 176.43 251.13 176.82 251.53C177.21 251.93 177.61 252.32 178.01 252.7L179.24 253.84C179.66 254.22 180.09 254.59 180.52 254.96C187.14 260.52 195.18 264.75 202.36 267.81L203.69 268.36L203.83 268.42L205.05 268.91L205.27 269L206.41 269.45L206.67 269.55L207.74 269.95L208.04 270.06C208.38 270.19 208.7 270.31 209.04 270.42L209.39 270.55L210.3 270.87L210.68 271L211.52 271.29L211.92 271.43L212.68 271.68L213.11 271.82L213.8 272.04L214.26 272.19L214.85 272.37L215.35 272.53L215.84 272.68L216.45 272.86L216.76 272.95L217.62 273.2C219.933 273.861 222.403 273.713 224.62 272.78C242.62 265.22 253.27 256.33 258.4 251.16C260.892 248.642 262.687 245.52 263.61 242.1C267.74 226.92 277.89 179.57 249.53 163.27C249.02 162.98 248.53 162.72 248.04 162.49C247.937 162.431 247.83 162.377 247.72 162.33C247.24 162.1 246.77 161.9 246.31 161.72L246.17 161.67C245.72 161.5 245.29 161.36 244.85 161.23L244.65 161.17C244.19 161.04 243.73 160.94 243.28 160.85H243.16C242.263 160.686 241.351 160.619 240.44 160.65C239.571 160.68 238.708 160.814 237.87 161.05C242.4 159.05 247.93 159.14 253.41 162.29C281.78 178.59 271.62 225.93 267.5 241.12L266.8 243.72C265.428 249.02 262.332 253.713 258 257.06L250.64 262.69C242.681 268.697 233.979 273.652 224.75 277.43C222.533 278.362 220.065 278.513 217.75 277.86C208.75 275.31 185.36 267.47 173.68 252.53C173.182 251.892 172.889 251.118 172.84 250.31V245.31L172.83 245.27Z" fill="black"/>
<path d="M210.12 414.16C210.852 414.53 211.66 414.723 212.48 414.723C213.3 414.723 214.108 414.53 214.84 414.16C216.15 413.41 216.15 412.16 214.84 411.44C214.11 411.065 213.301 410.87 212.48 410.87C211.659 410.87 210.85 411.065 210.12 411.44C208.82 412.19 208.82 413.41 210.12 414.16Z" fill="#37474F"/>
<path d="M209.13 412.72H215.81V332.36H209.13V412.72Z" fill="#37474F"/>
<path d="M286 369.59C286.732 369.96 287.54 370.153 288.36 370.153C289.18 370.153 289.988 369.96 290.72 369.59C292.03 368.83 292.03 367.59 290.72 366.86C289.988 366.49 289.18 366.297 288.36 366.297C287.54 366.297 286.732 366.49 286 366.86C284.73 367.61 284.73 368.83 286 369.59Z" fill="#263238"/>
<path d="M285.05 368.15H291.73V287.79H285.05V368.15Z" fill="#263238"/>
<path d="M85.6798 342.06C86.4101 342.435 87.2191 342.63 88.0398 342.63C88.8606 342.63 89.6696 342.435 90.3998 342.06C91.7098 341.31 91.7098 340.06 90.3998 339.34C89.6682 338.97 88.8597 338.777 88.0398 338.777C87.2199 338.777 86.4115 338.97 85.6798 339.34C84.3798 340.09 84.3798 341.31 85.6798 342.06Z" fill="#37474F"/>
<path d="M84.6899 340.63H91.3699L91.3699 260.27H84.6899L84.6899 340.63Z" fill="#37474F"/>
<path d="M167.29 281.25C167.945 281.585 168.67 281.76 169.405 281.76C170.14 281.76 170.865 281.585 171.52 281.25C171.774 281.163 171.995 280.998 172.151 280.779C172.307 280.561 172.391 280.299 172.391 280.03C172.391 279.761 172.307 279.499 172.151 279.281C171.995 279.062 171.774 278.897 171.52 278.81C170.865 278.475 170.14 278.3 169.405 278.3C168.67 278.3 167.945 278.475 167.29 278.81C167.036 278.897 166.815 279.062 166.659 279.281C166.503 279.499 166.419 279.761 166.419 280.03C166.419 280.299 166.503 280.561 166.659 280.779C166.815 280.998 167.036 281.163 167.29 281.25Z" fill="#455A64"/>
<path d="M166.4 279.97H172.39V212.91H166.4V279.97Z" fill="#455A64"/>
<path d="M291.73 274.48V290.47L212.47 336.23V320.24L291.73 274.48Z" fill="#263238"/>
<path d="M84.7 246.47L212.47 320.24V336.23L84.7 262.46V246.47Z" fill="#37474F"/>
<path d="M163.96 200.71L291.73 274.48L212.47 320.24L84.7 246.47L163.96 200.71Z" fill="#455A64"/>
<path opacity="0.2" d="M164.36 279.79L105.59 245.86C105.449 245.778 105.332 245.661 105.25 245.52C105.169 245.378 105.126 245.218 105.126 245.055C105.126 244.892 105.169 244.732 105.25 244.59C105.332 244.449 105.449 244.332 105.59 244.25L116.9 237.72C117.043 237.645 117.203 237.605 117.365 237.605C117.527 237.605 117.687 237.645 117.83 237.72L176.6 271.65C176.739 271.732 176.854 271.849 176.934 271.99C177.014 272.13 177.056 272.289 177.056 272.45C177.056 272.611 177.014 272.77 176.934 272.91C176.854 273.051 176.739 273.168 176.6 273.25L165.28 279.79C165.14 279.869 164.981 279.91 164.82 279.91C164.659 279.91 164.501 279.869 164.36 279.79Z" fill="black"/>
<path d="M220.63 306.5L186.35 286.5C186.273 286.455 186.21 286.391 186.165 286.314C186.121 286.236 186.098 286.149 186.098 286.06C186.098 285.971 186.121 285.884 186.165 285.806C186.21 285.729 186.273 285.665 186.35 285.62L224.35 262.2L220.63 306.5Z" fill="#6A55EB"/>
<path opacity="0.4" d="M220.63 306.5L186.35 286.5C186.273 286.455 186.21 286.391 186.165 286.314C186.121 286.236 186.098 286.149 186.098 286.06C186.098 285.971 186.121 285.884 186.165 285.806C186.21 285.729 186.273 285.665 186.35 285.62L224.35 262.2L220.63 306.5Z" fill="black"/>
<path d="M220.63 306.5L258.85 284.37V274.31L220.63 296.35V306.5Z" fill="#6A55EB"/>
<path opacity="0.2" d="M220.63 306.5L258.85 284.37V274.31L220.63 296.35V306.5Z" fill="black"/>
<path d="M251.39 285.92L236.3 294.63C235.3 295.21 234.48 294.63 234.48 293.26C234.492 292.58 234.662 291.912 234.978 291.309C235.294 290.706 235.747 290.186 236.3 289.79L251.39 281.07C252.39 280.49 253.21 281.07 253.21 282.45C253.201 283.131 253.031 283.8 252.715 284.403C252.399 285.006 251.945 285.525 251.39 285.92Z" fill="#E6E6E6"/>
<path d="M232.27 294.54C232.232 295.268 232.022 295.977 231.656 296.608C231.291 297.239 230.782 297.774 230.17 298.17C229.01 298.84 228.07 298.3 228.07 296.96C228.11 296.232 228.32 295.524 228.685 294.894C229.05 294.263 229.559 293.727 230.17 293.33C231.33 292.66 232.27 293.2 232.27 294.54Z" fill="#E6E6E6"/>
<path d="M220.63 296.35L186.49 280.3C186.406 280.26 186.334 280.198 186.283 280.12C186.231 280.043 186.201 279.953 186.196 279.86C186.191 279.767 186.211 279.674 186.254 279.591C186.297 279.509 186.361 279.439 186.44 279.39L223.07 257.61C223.276 257.487 223.509 257.417 223.749 257.409C223.988 257.4 224.226 257.452 224.44 257.56L258.85 274.31L220.63 296.35Z" fill="#6A55EB"/>
<path d="M188.69 281.33V285.65L216.97 301.65V294.63L188.69 281.33Z" fill="#F5F5F5"/>
<path d="M216.97 301.65L220.63 299.36V296.35L216.97 294.63V301.65Z" fill="#E0E0E0"/>
<path d="M186.19 276.14V265H248.52C248.73 265 255.42 268.49 258.38 270C258.513 270.073 258.625 270.181 258.702 270.312C258.78 270.443 258.821 270.593 258.821 270.745C258.821 270.897 258.78 271.047 258.702 271.178C258.625 271.309 258.513 271.417 258.38 271.49L221.47 292.4C221.209 292.543 220.918 292.622 220.621 292.631C220.324 292.639 220.029 292.578 219.76 292.45L186.19 276.14Z" fill="#6A55EB"/>
<path opacity="0.4" d="M186.19 276.14V265H248.52C248.73 265 255.42 268.49 258.38 270C258.513 270.073 258.625 270.181 258.702 270.312C258.78 270.443 258.821 270.593 258.821 270.745C258.821 270.897 258.78 271.047 258.702 271.178C258.625 271.309 258.513 271.417 258.38 271.49L221.47 292.4C221.209 292.543 220.918 292.622 220.621 292.631C220.324 292.639 220.029 292.578 219.76 292.45L186.19 276.14Z" fill="black"/>
<path d="M220.63 289.76L255.99 269.88V265.56L220.63 284.37V289.76Z" fill="#E0E0E0"/>
<path d="M186.19 276.14L195.44 270.73L186.19 264.98V276.14Z" fill="#6A55EB"/>
<path opacity="0.6" d="M186.19 276.14L195.44 270.73L186.19 264.98V276.14Z" fill="black"/>
<path d="M192.03 268.61V274.77L220.63 289.76V284.37L192.03 268.61Z" fill="#F5F5F5"/>
<path d="M186.19 265L219.44 284.82C219.804 285.037 220.217 285.158 220.641 285.17C221.064 285.183 221.484 285.086 221.86 284.89L258.51 265.69C258.64 265.62 258.749 265.517 258.827 265.392C258.905 265.267 258.949 265.124 258.955 264.977C258.961 264.83 258.929 264.684 258.861 264.553C258.794 264.422 258.693 264.31 258.57 264.23L225.11 242.48L186.19 265Z" fill="#6A55EB"/>
<path d="M200 241.6V243.9L185.28 252.21V249.91L200 241.6Z" fill="#6A55EB"/>
<path opacity="0.2" d="M200 241.6V243.9L185.28 252.21V249.91L200 241.6Z" fill="white"/>
<path d="M151.69 230.5L185.28 249.91V252.21L151.69 232.8V230.5Z" fill="#6A55EB"/>
<path opacity="0.4" d="M151.69 230.5L185.28 249.91V252.21L151.69 232.8V230.5Z" fill="white"/>
<path d="M166.41 222.19L200 241.6L185.28 249.91L151.69 230.5L166.41 222.19Z" fill="#6A55EB"/>
<path opacity="0.6" d="M166.41 222.19L200 241.6L185.28 249.91L151.69 230.5L166.41 222.19Z" fill="white"/>
<path d="M173.05 263.22L174.55 264.09V266.83C175.518 266.835 176.469 266.576 177.3 266.08L177.41 266.01C177.755 265.804 178.055 265.53 178.292 265.205C178.529 264.88 178.698 264.511 178.79 264.12C178.843 263.952 178.87 263.776 178.87 263.6V259.86L173.05 263.22Z" fill="#E0E0E0"/>
<path d="M107.7 162.19L107.82 162.12C108.653 161.629 109.603 161.37 110.57 161.37C110.876 161.365 111.177 161.444 111.44 161.6L176.25 198.86C177.046 199.321 177.707 199.983 178.167 200.78C178.627 201.576 178.869 202.48 178.87 203.4V259.86L173.05 263.22L111.49 227.83C110.694 227.369 110.033 226.707 109.573 225.91C109.113 225.114 108.871 224.21 108.87 223.29V164.75H106.25C106.251 164.235 106.386 163.728 106.64 163.28C106.894 162.832 107.259 162.456 107.7 162.19Z" fill="#E6E6E6"/>
<path d="M178.31 201.05C178.677 201.779 178.868 202.584 178.87 203.4V259.86L173.05 263.22L170.87 262V205.7L178.31 201.05Z" fill="#E0E0E0"/>
<path d="M176.25 261.37V265.12C176.248 265.421 176.168 265.717 176.016 265.977C175.864 266.237 175.647 266.453 175.386 266.602C175.125 266.752 174.829 266.831 174.528 266.83C174.227 266.83 173.931 266.751 173.67 266.6L108.87 229.34C108.074 228.879 107.413 228.217 106.953 227.42C106.493 226.624 106.251 225.72 106.25 224.8V221L176.25 261.37Z" fill="#F0F0F0"/>
<path d="M106.25 164.6C106.25 164.298 106.329 164.001 106.48 163.74C106.631 163.478 106.848 163.261 107.11 163.11C107.371 162.959 107.668 162.88 107.97 162.88C108.272 162.88 108.568 162.959 108.83 163.11L173.63 200.38C174.428 200.839 175.09 201.501 175.55 202.298C176.01 203.095 176.251 204 176.25 204.92V261.37L106.25 220.96" fill="#F0F0F0"/>
<path d="M143.56 230.49L131.21 224.25L134.23 222.19L146.12 228.44L143.56 230.49Z" fill="#E0E0E0"/>
<path d="M131.21 224.24L124.07 252.62C123.96 253.06 123.999 253.524 124.18 253.94C124.36 254.356 124.673 254.7 125.07 254.92L139.83 263.22C139.83 263.22 144.42 230.92 143.57 230.49L131.21 224.24Z" fill="#E6E6E6"/>
<path d="M147.6 256.87L142.52 253.79L141.54 260.68L147.6 256.87Z" fill="#F0F0F0"/>
<path d="M143.56 230.49L139 261.67C138.957 261.954 138.998 262.244 139.117 262.505C139.237 262.766 139.431 262.986 139.675 263.138C139.918 263.29 140.201 263.368 140.488 263.361C140.775 263.354 141.054 263.263 141.29 263.1L147.15 259.1C147.362 258.958 147.536 258.767 147.657 258.542C147.777 258.316 147.84 258.065 147.84 257.81V257.21C147.84 257.127 147.818 257.046 147.775 256.975C147.733 256.904 147.671 256.846 147.598 256.808C147.525 256.77 147.442 256.753 147.359 256.758C147.277 256.764 147.197 256.792 147.13 256.84L141.57 260.65L146.15 228.42L143.56 230.49Z" fill="#E0E0E0"/>
<path d="M143.24 214.6C143.24 217.33 141.32 218.44 138.95 217.07C137.705 216.255 136.669 215.159 135.925 213.87C135.182 212.581 134.752 211.136 134.67 209.65C134.67 206.92 136.59 205.81 138.95 207.18C140.198 207.992 141.237 209.088 141.982 210.377C142.728 211.666 143.159 213.113 143.24 214.6Z" fill="#E0E0E0"/>
<path d="M94.9399 369.42L134.21 346.93L103.03 329.74L65.1299 352.05L94.9399 369.42Z" fill="white"/>
<path d="M96.2998 365.67C96.2368 365.667 96.1752 365.65 96.1198 365.62L73.3198 352.33C73.2742 352.31 73.2332 352.282 73.1997 352.245C73.1661 352.208 73.1407 352.165 73.1251 352.118C73.1095 352.071 73.1042 352.021 73.1093 351.972C73.1145 351.922 73.1301 351.875 73.1551 351.832C73.1801 351.789 73.2139 351.752 73.2543 351.723C73.2948 351.694 73.3408 351.674 73.3895 351.665C73.4382 351.655 73.4883 351.656 73.5367 351.667C73.585 351.679 73.6304 351.7 73.6698 351.73L96.4698 365C96.51 365.023 96.5453 365.053 96.5737 365.09C96.602 365.126 96.6228 365.168 96.6349 365.213C96.647 365.258 96.6501 365.304 96.6441 365.35C96.6381 365.396 96.623 365.44 96.5998 365.48C96.5713 365.536 96.5285 365.582 96.4757 365.616C96.423 365.649 96.3622 365.668 96.2998 365.67Z" fill="#E0E0E0"/>
<path d="M100 363.4C99.9442 363.414 99.8858 363.414 99.83 363.4L77.06 350.06C77.021 350.037 76.9868 350.007 76.9596 349.971C76.9324 349.935 76.9126 349.894 76.9014 349.85C76.8903 349.806 76.8879 349.761 76.8945 349.716C76.9012 349.672 76.9166 349.629 76.94 349.59C76.9618 349.55 76.9915 349.515 77.0271 349.487C77.0628 349.459 77.1037 349.438 77.1475 349.426C77.1913 349.414 77.2372 349.41 77.2822 349.416C77.3273 349.422 77.3708 349.437 77.41 349.46L100.22 362.75C100.3 362.798 100.357 362.875 100.379 362.965C100.402 363.055 100.388 363.15 100.34 363.23C100.307 363.289 100.257 363.337 100.196 363.367C100.135 363.397 100.067 363.409 100 363.4Z" fill="#E0E0E0"/>
<path d="M103.68 361.23C103.624 361.245 103.566 361.245 103.51 361.23L80.6998 347.9C80.6203 347.852 80.563 347.775 80.5405 347.685C80.518 347.595 80.5321 347.5 80.5798 347.42C80.6017 347.38 80.6313 347.345 80.667 347.317C80.7026 347.289 80.7435 347.268 80.7874 347.256C80.8312 347.244 80.877 347.24 80.9221 347.246C80.9672 347.252 81.0106 347.267 81.0498 347.29L103.86 360.59C103.929 360.626 103.983 360.685 104.014 360.757C104.044 360.828 104.049 360.908 104.028 360.983C104.007 361.058 103.961 361.123 103.898 361.168C103.834 361.213 103.757 361.235 103.68 361.23Z" fill="#E0E0E0"/>
<path d="M107.43 359C107.367 358.997 107.305 358.98 107.25 358.95L84.4498 345.66C84.3706 345.612 84.3129 345.535 84.2886 345.446C84.2644 345.357 84.2756 345.261 84.3198 345.18C84.3425 345.14 84.3732 345.104 84.41 345.076C84.4468 345.048 84.489 345.028 84.5339 345.016C84.5789 345.005 84.6257 345.003 84.6714 345.011C84.7171 345.018 84.7608 345.035 84.7998 345.06L107.6 358.35C107.64 358.372 107.675 358.401 107.703 358.437C107.731 358.473 107.752 358.514 107.764 358.558C107.776 358.601 107.779 358.647 107.774 358.692C107.768 358.737 107.753 358.781 107.73 358.82C107.7 358.874 107.657 358.919 107.604 358.95C107.551 358.982 107.491 358.999 107.43 359Z" fill="#E0E0E0"/>
<path d="M111.17 356.7C111.11 356.699 111.051 356.681 111 356.65L88.1898 343.36C88.1103 343.312 88.053 343.235 88.0305 343.145C88.008 343.055 88.0221 342.96 88.0698 342.88C88.0915 342.84 88.1212 342.805 88.1571 342.777C88.193 342.749 88.2344 342.728 88.2785 342.717C88.3227 342.706 88.3687 342.704 88.4137 342.711C88.4586 342.719 88.5016 342.735 88.5398 342.76L111.35 356.05C111.389 356.073 111.423 356.103 111.45 356.139C111.477 356.175 111.497 356.216 111.508 356.26C111.52 356.304 111.522 356.349 111.515 356.394C111.509 356.438 111.493 356.481 111.47 356.52C111.44 356.574 111.397 356.619 111.344 356.65C111.291 356.682 111.231 356.699 111.17 356.7Z" fill="#E0E0E0"/>
<path d="M114.92 354.43C114.857 354.427 114.795 354.41 114.74 354.38L91.9399 341.09C91.8943 341.07 91.8534 341.042 91.8198 341.005C91.7862 340.968 91.7608 340.925 91.7452 340.878C91.7297 340.831 91.7243 340.781 91.7294 340.732C91.7346 340.682 91.7502 340.635 91.7752 340.592C91.8002 340.549 91.8341 340.512 91.8745 340.483C91.9149 340.454 91.9609 340.434 92.0096 340.425C92.0583 340.415 92.1085 340.416 92.1568 340.427C92.2051 340.439 92.2505 340.46 92.2899 340.49L115.09 353.78C115.13 353.802 115.165 353.831 115.193 353.867C115.221 353.903 115.242 353.944 115.254 353.988C115.266 354.031 115.27 354.077 115.264 354.122C115.258 354.167 115.243 354.211 115.22 354.25C115.189 354.303 115.146 354.347 115.093 354.379C115.041 354.41 114.981 354.428 114.92 354.43Z" fill="#E0E0E0"/>
<path d="M118.66 352.16C118.6 352.159 118.541 352.141 118.49 352.11L95.6798 338.82C95.6003 338.772 95.543 338.695 95.5205 338.605C95.498 338.515 95.5121 338.42 95.5598 338.34C95.5825 338.301 95.6128 338.267 95.6488 338.24C95.6848 338.212 95.7259 338.193 95.7697 338.181C95.8134 338.17 95.8589 338.168 95.9036 338.175C95.9483 338.181 95.9912 338.197 96.0298 338.22L118.84 351.51C118.879 351.533 118.913 351.563 118.94 351.599C118.967 351.635 118.987 351.676 118.998 351.72C119.01 351.764 119.012 351.809 119.005 351.854C118.999 351.898 118.983 351.941 118.96 351.98C118.932 352.035 118.889 352.081 118.836 352.113C118.783 352.145 118.722 352.161 118.66 352.16Z" fill="#E0E0E0"/>
<path d="M122.41 349.89C122.347 349.887 122.285 349.87 122.23 349.84L99.4299 336.55C99.3843 336.53 99.3434 336.502 99.3098 336.465C99.2762 336.428 99.2508 336.385 99.2352 336.338C99.2196 336.291 99.2143 336.241 99.2194 336.192C99.2246 336.142 99.2402 336.095 99.2652 336.052C99.2902 336.009 99.324 335.972 99.3644 335.943C99.4049 335.914 99.4509 335.894 99.4996 335.885C99.5483 335.875 99.5984 335.876 99.6468 335.887C99.6951 335.899 99.7405 335.92 99.7799 335.95L122.58 349.24C122.62 349.263 122.655 349.293 122.684 349.33C122.712 349.366 122.733 349.408 122.745 349.453C122.757 349.498 122.76 349.544 122.754 349.59C122.748 349.636 122.733 349.68 122.71 349.72C122.679 349.772 122.635 349.815 122.582 349.845C122.53 349.874 122.47 349.89 122.41 349.89Z" fill="#E0E0E0"/>
<path d="M126.15 347.62C126.09 347.619 126.031 347.601 125.98 347.57L103.17 334.28C103.09 334.232 103.033 334.155 103.01 334.065C102.988 333.975 103.002 333.88 103.05 333.8C103.073 333.761 103.103 333.727 103.139 333.7C103.175 333.672 103.216 333.653 103.26 333.641C103.303 333.63 103.349 333.628 103.394 333.635C103.438 333.641 103.481 333.657 103.52 333.68L126.33 347C126.409 347.048 126.467 347.125 126.489 347.215C126.512 347.305 126.498 347.4 126.45 347.48C126.416 347.527 126.371 347.564 126.318 347.589C126.265 347.614 126.208 347.624 126.15 347.62Z" fill="#E0E0E0"/>
<path d="M65.25 351.94L95.05 369.31V396.01L65.25 379.55V351.94Z" fill="#FAFAFA"/>
<path d="M95.0498 369.31L134.32 346.82V373.21L95.0498 396.01V369.31Z" fill="#E6E6E6"/>
<path d="M88.6399 371.92L95.0499 375.66L108.92 367.72L95.0499 377.69L88.6399 371.92Z" fill="#E0E0E0"/>
<path d="M88.6399 381.21L95.0499 384.95L102.89 380.47L95.0499 386.98L88.6399 381.21Z" fill="#E0E0E0"/>
<path d="M98.7798 376.91L103.68 378.37L107.43 372.7L98.7798 376.91Z" fill="#E0E0E0"/>
<path d="M98.7798 376.91L113.57 368.49L106.18 376.91H98.7798Z" fill="white"/>
<path d="M120.92 358.81L124.39 359.85L127.04 355.83L120.92 358.81Z" fill="#E0E0E0"/>
<path d="M120.92 358.81L131.39 352.85L126.15 358.81H120.92Z" fill="white"/>
<path d="M113.43 378.66L116.9 379.7L119.55 375.68L113.43 378.66Z" fill="#E0E0E0"/>
<path d="M113.43 378.66L123.9 372.7L118.66 378.66H113.43Z" fill="white"/>
<path d="M155.73 430.78L121.45 410.78C121.373 410.735 121.309 410.671 121.265 410.594C121.221 410.516 121.198 410.429 121.198 410.34C121.198 410.251 121.221 410.164 121.265 410.086C121.309 410.009 121.373 409.945 121.45 409.9L159.45 386.48L155.73 430.78Z" fill="#6A55EB"/>
<path opacity="0.4" d="M155.73 430.78L121.45 410.78C121.373 410.735 121.309 410.671 121.265 410.594C121.221 410.516 121.198 410.429 121.198 410.34C121.198 410.251 121.221 410.164 121.265 410.086C121.309 410.009 121.373 409.945 121.45 409.9L159.45 386.48L155.73 430.78Z" fill="black"/>
<path d="M155.73 430.78L193.95 408.65V398.59L155.73 420.63V430.78Z" fill="#6A55EB"/>
<path opacity="0.2" d="M155.73 430.78L193.95 408.65V398.59L155.73 420.63V430.78Z" fill="black"/>
<path d="M186.49 410.2L171.4 418.92C170.4 419.5 169.58 418.92 169.58 417.54C169.589 416.859 169.759 416.19 170.075 415.587C170.391 414.984 170.845 414.465 171.4 414.07L186.49 405.36C187.49 404.78 188.31 405.36 188.31 406.73C188.298 407.41 188.128 408.078 187.812 408.681C187.496 409.283 187.043 409.804 186.49 410.2Z" fill="#E6E6E6"/>
<path d="M167.36 418.82C167.32 419.549 167.109 420.258 166.745 420.891C166.38 421.523 165.871 422.061 165.26 422.46C164.11 423.13 163.17 422.58 163.17 421.25C163.209 420.522 163.419 419.814 163.782 419.181C164.145 418.549 164.651 418.011 165.26 417.61C166.42 416.94 167.36 417.48 167.36 418.82Z" fill="#E6E6E6"/>
<path d="M155.73 420.63L121.58 404.58C121.498 404.536 121.43 404.472 121.382 404.392C121.335 404.313 121.31 404.222 121.31 404.13C121.31 404.038 121.335 403.947 121.382 403.868C121.43 403.788 121.498 403.723 121.58 403.68L158.2 381.9C158.406 381.775 158.641 381.704 158.882 381.694C159.123 381.683 159.363 381.734 159.58 381.84L194 398.59L155.73 420.63Z" fill="#6A55EB"/>
<path d="M123.78 405.62V409.93L152.07 425.93V418.91L123.78 405.62Z" fill="#F5F5F5"/>
<path d="M152.07 425.93L155.73 423.65V420.63L152.07 418.91V425.93Z" fill="#E0E0E0"/>
<path d="M121.29 400.42V389.27H183.61C183.83 389.27 190.52 392.75 193.48 394.27C193.613 394.345 193.724 394.454 193.801 394.585C193.878 394.717 193.919 394.867 193.919 395.02C193.919 395.173 193.878 395.323 193.801 395.455C193.724 395.586 193.613 395.695 193.48 395.77L156.55 416.65C156.291 416.798 155.999 416.88 155.701 416.888C155.403 416.897 155.107 416.832 154.84 416.7L121.29 400.42Z" fill="#6A55EB"/>
<path opacity="0.4" d="M121.29 400.42V389.27H183.61C183.83 389.27 190.52 392.75 193.48 394.27C193.613 394.345 193.724 394.454 193.801 394.585C193.878 394.717 193.919 394.867 193.919 395.02C193.919 395.173 193.878 395.323 193.801 395.455C193.724 395.586 193.613 395.695 193.48 395.77L156.55 416.65C156.291 416.798 155.999 416.88 155.701 416.888C155.403 416.897 155.107 416.832 154.84 416.7L121.29 400.42Z" fill="black"/>
<path d="M155.73 414.05L191.09 394.16V389.84L155.73 408.65V414.05Z" fill="#E0E0E0"/>
<path d="M121.29 400.42L130.54 395.01L121.29 389.27V400.42Z" fill="#6A55EB"/>
<path opacity="0.6" d="M121.29 400.42L130.54 395.01L121.29 389.27V400.42Z" fill="black"/>
<path d="M127.13 392.89V399.05L155.73 414.05V408.65L127.13 392.89Z" fill="#F5F5F5"/>
<path d="M121.29 389.27L154.54 409.08C154.901 409.299 155.313 409.421 155.736 409.433C156.158 409.446 156.576 409.348 156.95 409.15L193.61 390C193.736 389.925 193.841 389.818 193.913 389.69C193.986 389.562 194.024 389.417 194.024 389.27C194.024 389.123 193.986 388.978 193.913 388.85C193.841 388.722 193.736 388.615 193.61 388.54L160.16 366.8L121.29 389.27Z" fill="#6A55EB"/>
<path d="M155.73 405.62L121.45 385.62C121.373 385.575 121.309 385.511 121.265 385.434C121.221 385.356 121.198 385.269 121.198 385.18C121.198 385.091 121.221 385.004 121.265 384.926C121.309 384.849 121.373 384.785 121.45 384.74L159.45 361.32L155.73 405.62Z" fill="#6A55EB"/>
<path opacity="0.4" d="M155.73 405.62L121.45 385.62C121.373 385.575 121.309 385.511 121.265 385.434C121.221 385.356 121.198 385.269 121.198 385.18C121.198 385.091 121.221 385.004 121.265 384.926C121.309 384.849 121.373 384.785 121.45 384.74L159.45 361.32L155.73 405.62Z" fill="black"/>
<path d="M155.73 405.62L193.95 383.49V373.43L155.73 395.47V405.62Z" fill="#6A55EB"/>
<path opacity="0.2" d="M155.73 405.62L193.95 383.49V373.43L155.73 395.47V405.62Z" fill="black"/>
<path d="M186.49 385L171.4 393.71C170.4 394.29 169.58 393.71 169.58 392.34C169.589 391.659 169.759 390.99 170.075 390.387C170.391 389.784 170.845 389.265 171.4 388.87L186.49 380.15C187.49 379.57 188.31 380.15 188.31 381.53C188.298 382.21 188.128 382.878 187.812 383.481C187.496 384.083 187.043 384.604 186.49 385Z" fill="#E6E6E6"/>
<path d="M167.36 393.66C167.322 394.388 167.112 395.097 166.747 395.728C166.382 396.359 165.872 396.894 165.26 397.29C164.11 397.96 163.17 397.42 163.17 396.08C163.209 395.353 163.419 394.646 163.782 394.016C164.145 393.385 164.651 392.849 165.26 392.45C166.42 391.78 167.36 392.32 167.36 393.66Z" fill="#E6E6E6"/>
<path d="M155.73 395.47L121.58 379.42C121.499 379.375 121.431 379.309 121.384 379.229C121.336 379.149 121.312 379.058 121.312 378.965C121.312 378.872 121.336 378.781 121.384 378.701C121.431 378.621 121.499 378.555 121.58 378.51L158.2 356.73C158.407 356.607 158.642 356.538 158.883 356.529C159.125 356.52 159.364 356.572 159.58 356.68L194 373.43L155.73 395.47Z" fill="#6A55EB"/>
<path d="M123.78 380.45V384.77L152.07 400.77V393.75L123.78 380.45Z" fill="#F5F5F5"/>
<path d="M152.07 400.77L155.73 398.48V395.47L152.07 393.75V400.77Z" fill="#E0E0E0"/>
<path d="M121.34 374.53V363.37H183.66C183.87 363.37 190.56 366.86 193.52 368.37C193.653 368.443 193.765 368.551 193.842 368.682C193.92 368.813 193.961 368.963 193.961 369.115C193.961 369.267 193.92 369.417 193.842 369.548C193.765 369.679 193.653 369.787 193.52 369.86L156.58 390.75C156.317 390.885 156.025 390.956 155.73 390.956C155.434 390.956 155.143 390.885 154.88 390.75L121.34 374.53Z" fill="#6A55EB"/>
<path opacity="0.4" d="M121.34 374.53V363.37H183.66C183.87 363.37 190.56 366.86 193.52 368.37C193.653 368.443 193.765 368.551 193.842 368.682C193.92 368.813 193.961 368.963 193.961 369.115C193.961 369.267 193.92 369.417 193.842 369.548C193.765 369.679 193.653 369.787 193.52 369.86L156.58 390.75C156.317 390.885 156.025 390.956 155.73 390.956C155.434 390.956 155.143 390.885 154.88 390.75L121.34 374.53Z" fill="black"/>
<path d="M155.77 388.15L191.14 368.26V363.94L155.77 382.76V388.15Z" fill="#E0E0E0"/>
<path d="M121.34 374.53L130.58 369.12L121.34 363.37V374.53Z" fill="#6A55EB"/>
<path opacity="0.6" d="M121.34 374.53L130.58 369.12L121.34 363.37V374.53Z" fill="black"/>
<path d="M127.17 367V373.16L155.77 388.15V382.76L127.17 367Z" fill="#F5F5F5"/>
<path d="M121.34 363.37L154.59 383.19C154.952 383.408 155.364 383.528 155.786 383.54C156.208 383.553 156.626 383.456 157 383.26L193.66 364.06C193.789 363.989 193.897 363.886 193.975 363.76C194.052 363.635 194.095 363.491 194.1 363.344C194.105 363.197 194.072 363.051 194.003 362.921C193.935 362.79 193.834 362.68 193.71 362.6L160.25 340.85L121.34 363.37Z" fill="#6A55EB"/>
<path d="M155.77 379.72L121.5 359.72C121.423 359.675 121.36 359.611 121.315 359.534C121.271 359.456 121.248 359.369 121.248 359.28C121.248 359.191 121.271 359.104 121.315 359.026C121.36 358.949 121.423 358.885 121.5 358.84L159.5 335.43L155.77 379.72Z" fill="#6A55EB"/>
<path opacity="0.4" d="M155.77 379.72L121.5 359.72C121.423 359.675 121.36 359.611 121.315 359.534C121.271 359.456 121.248 359.369 121.248 359.28C121.248 359.191 121.271 359.104 121.315 359.026C121.36 358.949 121.423 358.885 121.5 358.84L159.5 335.43L155.77 379.72Z" fill="black"/>
<path d="M155.77 379.72L193.99 357.59V347.54L155.77 369.57V379.72Z" fill="#6A55EB"/>
<path opacity="0.2" d="M155.77 379.72L193.99 357.59V347.54L155.77 369.57V379.72Z" fill="black"/>
<path d="M186.54 359.15L171.44 367.86C170.44 368.44 169.63 367.86 169.63 366.49C169.64 365.809 169.808 365.14 170.122 364.536C170.437 363.931 170.888 363.409 171.44 363.01L186.54 354.3C187.54 353.72 188.35 354.3 188.35 355.67C188.34 356.351 188.172 357.02 187.857 357.624C187.543 358.229 187.092 358.751 186.54 359.15Z" fill="#E6E6E6"/>
<path d="M167.41 367.77C167.369 368.497 167.158 369.205 166.793 369.836C166.429 370.466 165.92 371.002 165.31 371.4C164.15 372.07 163.21 371.53 163.21 370.19C163.25 369.461 163.46 368.752 163.825 368.119C164.19 367.487 164.699 366.949 165.31 366.55C166.47 365.89 167.41 366.43 167.41 367.77Z" fill="#E6E6E6"/>
<path d="M155.77 369.57L121.63 353.57C121.549 353.525 121.481 353.459 121.434 353.379C121.386 353.299 121.362 353.208 121.362 353.115C121.362 353.022 121.386 352.931 121.434 352.851C121.481 352.771 121.549 352.705 121.63 352.66L158.25 330.88C158.457 330.758 158.692 330.688 158.932 330.678C159.173 330.667 159.413 330.716 159.63 330.82L194 347.54L155.77 369.57Z" fill="#6A55EB"/>
<path d="M123.83 354.56V358.87L152.12 374.88V367.85L123.83 354.56Z" fill="#F5F5F5"/>
<path d="M152.12 374.88L155.77 372.59V369.57L152.12 367.85V374.88Z" fill="#E0E0E0"/>
<path d="M154.82 340.59L194.09 318.1L162.9 300.91L125.01 323.22L154.82 340.59Z" fill="#FAFAFA"/>
<path d="M156.17 336.83C156.114 336.844 156.056 336.844 156 336.83L133.2 323.5C133.16 323.477 133.124 323.447 133.096 323.41C133.068 323.374 133.047 323.332 133.035 323.287C133.023 323.242 133.02 323.196 133.026 323.15C133.032 323.104 133.047 323.06 133.07 323.02C133.093 322.981 133.123 322.947 133.159 322.92C133.195 322.892 133.236 322.873 133.28 322.861C133.324 322.85 133.369 322.848 133.414 322.855C133.458 322.861 133.501 322.877 133.54 322.9L156.35 336.19C156.39 336.212 156.425 336.241 156.453 336.277C156.481 336.313 156.502 336.354 156.514 336.398C156.526 336.441 156.53 336.487 156.524 336.532C156.518 336.577 156.503 336.621 156.48 336.66C156.447 336.712 156.401 336.755 156.347 336.784C156.292 336.814 156.232 336.83 156.17 336.83Z" fill="#E0E0E0"/>
<path d="M159.92 334.56C159.864 334.575 159.806 334.575 159.75 334.56L136.94 321.27C136.861 321.222 136.803 321.145 136.779 321.056C136.754 320.967 136.766 320.871 136.81 320.79C136.832 320.75 136.863 320.714 136.9 320.686C136.937 320.658 136.979 320.638 137.024 320.626C137.069 320.615 137.116 320.613 137.161 320.621C137.207 320.628 137.251 320.645 137.29 320.67L160.09 333.96C160.158 333.996 160.211 334.054 160.242 334.124C160.272 334.195 160.278 334.273 160.259 334.347C160.239 334.422 160.195 334.487 160.133 334.533C160.072 334.579 159.997 334.602 159.92 334.6V334.56Z" fill="#E0E0E0"/>
<path d="M163.56 332.4C163.504 332.414 163.446 332.414 163.39 332.4L140.58 319.11C140.5 319.062 140.443 318.985 140.421 318.895C140.398 318.805 140.412 318.71 140.46 318.63C140.483 318.591 140.513 318.557 140.549 318.53C140.585 318.502 140.626 318.483 140.67 318.471C140.714 318.46 140.759 318.458 140.804 318.465C140.848 318.471 140.891 318.487 140.93 318.51L163.74 331.8C163.82 331.848 163.877 331.925 163.899 332.015C163.922 332.105 163.908 332.2 163.86 332.28C163.824 332.323 163.777 332.357 163.725 332.378C163.673 332.399 163.616 332.406 163.56 332.4Z" fill="#E0E0E0"/>
<path d="M167.31 330.13C167.247 330.127 167.185 330.11 167.13 330.08L144.33 316.79C144.29 316.768 144.255 316.739 144.227 316.703C144.199 316.667 144.178 316.626 144.166 316.582C144.154 316.539 144.15 316.493 144.156 316.448C144.162 316.403 144.177 316.359 144.2 316.32C144.223 316.28 144.253 316.245 144.29 316.216C144.326 316.188 144.368 316.167 144.413 316.155C144.457 316.143 144.504 316.14 144.55 316.146C144.596 316.152 144.64 316.167 144.68 316.19L167.48 329.48C167.559 329.528 167.617 329.605 167.641 329.694C167.665 329.783 167.654 329.879 167.61 329.96C167.578 330.011 167.534 330.054 167.482 330.083C167.429 330.113 167.37 330.129 167.31 330.13Z" fill="#E0E0E0"/>
<path d="M171.05 327.86C170.989 327.864 170.929 327.846 170.88 327.81L148.07 314.52C148.031 314.497 147.997 314.467 147.969 314.431C147.942 314.395 147.922 314.354 147.911 314.31C147.9 314.266 147.898 314.221 147.904 314.176C147.911 314.132 147.926 314.089 147.95 314.05C147.972 314.01 148.001 313.975 148.037 313.947C148.073 313.919 148.113 313.898 148.157 313.886C148.201 313.874 148.247 313.87 148.292 313.876C148.337 313.882 148.381 313.897 148.42 313.92L171.23 327.21C171.309 327.258 171.367 327.335 171.389 327.425C171.412 327.515 171.397 327.61 171.35 327.69C171.319 327.743 171.276 327.786 171.223 327.816C171.17 327.846 171.11 327.861 171.05 327.86Z" fill="#E0E0E0"/>
<path d="M174.79 325.59C174.735 325.608 174.675 325.608 174.62 325.59L151.82 312.3C151.78 312.278 151.745 312.249 151.717 312.213C151.689 312.177 151.668 312.136 151.656 312.092C151.643 312.049 151.64 312.003 151.646 311.958C151.652 311.913 151.667 311.869 151.69 311.83C151.738 311.751 151.814 311.693 151.904 311.669C151.993 311.645 152.089 311.656 152.17 311.7L175 324.94C175.079 324.988 175.137 325.065 175.161 325.154C175.185 325.243 175.174 325.339 175.13 325.42C175.094 325.476 175.043 325.522 174.983 325.552C174.924 325.582 174.857 325.595 174.79 325.59Z" fill="#E0E0E0"/>
<path d="M178.54 323.32C178.479 323.324 178.419 323.306 178.37 323.27L155.56 310C155.52 309.978 155.485 309.949 155.457 309.913C155.429 309.877 155.408 309.836 155.396 309.792C155.383 309.749 155.38 309.703 155.386 309.658C155.392 309.613 155.407 309.569 155.43 309.53C155.478 309.451 155.554 309.393 155.644 309.369C155.733 309.345 155.829 309.356 155.91 309.4L178.71 322.69C178.75 322.713 178.785 322.743 178.814 322.78C178.842 322.816 178.863 322.858 178.875 322.903C178.887 322.948 178.89 322.994 178.884 323.04C178.878 323.086 178.863 323.13 178.84 323.17C178.807 323.219 178.762 323.258 178.71 323.285C178.657 323.311 178.599 323.323 178.54 323.32Z" fill="#E0E0E0"/>
<path d="M182.29 321.05C182.231 321.064 182.169 321.064 182.11 321.05L159.31 307.75C159.27 307.728 159.235 307.699 159.207 307.663C159.179 307.627 159.158 307.586 159.146 307.542C159.133 307.499 159.13 307.453 159.136 307.408C159.142 307.363 159.157 307.319 159.18 307.28C159.228 307.201 159.304 307.143 159.394 307.119C159.483 307.095 159.579 307.106 159.66 307.15L182.46 320.44C182.539 320.488 182.597 320.565 182.621 320.654C182.645 320.743 182.634 320.839 182.59 320.92C182.554 320.964 182.508 320.998 182.456 321.021C182.403 321.044 182.347 321.054 182.29 321.05Z" fill="#E0E0E0"/>
<path d="M186 318.78C185.941 318.794 185.879 318.794 185.82 318.78L163.02 305.49C162.98 305.467 162.945 305.436 162.916 305.4C162.888 305.363 162.868 305.321 162.855 305.277C162.843 305.232 162.84 305.186 162.846 305.14C162.852 305.094 162.867 305.05 162.89 305.01C162.913 304.97 162.944 304.935 162.98 304.907C163.017 304.878 163.058 304.858 163.103 304.846C163.148 304.833 163.194 304.83 163.24 304.836C163.286 304.842 163.33 304.857 163.37 304.88L186.17 318.17C186.21 318.193 186.245 318.223 186.274 318.26C186.302 318.296 186.323 318.338 186.335 318.383C186.347 318.428 186.35 318.474 186.344 318.52C186.338 318.566 186.323 318.61 186.3 318.65C186.265 318.695 186.219 318.731 186.167 318.753C186.114 318.776 186.057 318.785 186 318.78Z" fill="#E0E0E0"/>
<path d="M125.12 323.1L154.93 340.48V367.18L125.12 350.72V323.1Z" fill="#F0F0F0"/>
<path d="M154.93 340.48L194.2 317.98V344.38L154.93 367.18V340.48Z" fill="#E6E6E6"/>
<path d="M148.52 343.09L154.93 346.82L168.8 338.88L154.93 348.85L148.52 343.09Z" fill="#E0E0E0"/>
<path d="M148.52 352.38L154.93 356.12L162.76 351.63L154.93 358.15L148.52 352.38Z" fill="#E0E0E0"/>
<path d="M158.66 348.08L163.56 349.54L167.31 343.87L158.66 348.08Z" fill="#E0E0E0"/>
<path d="M158.66 348.08L173.45 339.65L166.05 348.08H158.66Z" fill="white"/>
<path d="M180.79 329.98L184.26 331.01L186.91 327L180.79 329.98Z" fill="#E0E0E0"/>
<path d="M180.79 329.98L191.26 324.01L186.03 329.98H180.79Z" fill="white"/>
<path d="M173.31 349.83L176.78 350.86L179.43 346.85L173.31 349.83Z" fill="#E0E0E0"/>
<path d="M173.31 349.83L183.78 343.87L178.54 349.83H173.31Z" fill="white"/>
<path d="M135.82 350.66L133.28 351.42L131.33 348.47L135.82 350.66Z" fill="#E0E0E0"/>
<path d="M135.82 350.66L128.14 346.28L131.98 350.66H135.82Z" fill="white"/>
<path d="M145.82 340.18L142.35 341.21L139.7 337.2L145.82 340.18Z" fill="#E0E0E0"/>
<path d="M145.82 340.18L135.35 334.22L140.59 340.18H145.82Z" fill="white"/>
<path d="M389.97 394.31L386.64 392.92L387.5 388.88L389.97 394.31Z" fill="#37474F"/>
<path d="M393.72 383.44L395.14 389.79L389.97 394.31L387.5 388.88L393.72 383.44Z" fill="#455A64"/>
<path d="M379.46 376.85C378.474 379.481 377.77 382.21 377.36 384.99C376.671 388.932 374.842 392.585 372.1 395.5C369.67 397.74 365.33 402.9 372.86 403.82C380.65 404.82 387.18 398.34 387.28 394.77C387.38 391.2 388.33 388.4 390.28 386.77C392.23 385.14 393.75 383.47 393.75 383.47C393.75 383.47 390.28 371.01 387.31 371.71C384.34 372.41 379.46 376.85 379.46 376.85Z" fill="#263238"/>
<path d="M382.47 364.66C380.23 361.28 377.7 357.3 375.66 353.66C370.86 345.02 363.59 331.3 356.46 328.56V270.31L329.08 269.05C329.08 269.05 320.08 300.96 332.87 326.61C342.01 344.98 361.87 364.13 372.36 373.51C375.64 373 381.64 371.11 382.47 364.66Z" fill="#455A64"/>
<path d="M388 372.69C388 372.69 385.5 369.24 382.46 364.69C381.63 371.14 375.63 373 372.35 373.54C376.51 377.25 379.22 379.44 379.22 379.44C379.22 379.44 388.14 380.65 388 372.69Z" fill="#945959"/>
<path d="M331.84 324.36L339.18 288.14C339.18 288.14 333.7 284.94 333.7 276.48C333.7 276.48 333.01 284.64 336.7 290.54L330.39 320.82C330.83 322 331.32 323.19 331.84 324.36Z" fill="#37474F"/>
<path d="M356.46 328.53V326.43L353 328.67L346.62 338.54L346.02 346.29C348.53 349.38 351.15 352.38 353.76 355.22L354.28 342.52L359.08 329.98C358.274 329.384 357.393 328.896 356.46 328.53Z" fill="#37474F"/>
<path d="M331.27 424.67L327.89 422.75L331.27 418.27V424.67Z" fill="#37474F"/>
<path d="M336.19 416.08V421.75L331.27 424.67V418.27L336.19 416.08Z" fill="#455A64"/>
<path d="M325.51 404.06C325.51 404.06 323.59 403.28 321.76 409.95C319.93 416.62 312.35 420.95 310.43 422.11C308.51 423.27 303.43 428.11 310.43 430.61C317.43 433.11 326.34 429.43 328.43 425.22C330.52 421.01 331.59 418.45 336.18 416.08V407.57C336.18 405.93 334.46 404.74 333.37 404.46C332.28 404.18 325.51 404.06 325.51 404.06Z" fill="#263238"/>
<path d="M364.55 269.05L333.7 266.88V276.48C333.7 284.94 339.18 288.14 339.18 288.14L329.85 334.14C329.399 336.358 329.091 338.602 328.93 340.86L324.88 398.58C326.407 399.907 328.251 400.816 330.232 401.219C332.214 401.622 334.267 401.505 336.19 400.88C338.29 394.45 341.87 383.71 346.09 371.97C351.17 357.8 351.4 347.97 351.2 343.97C351.124 342.569 351.374 341.169 351.93 339.88C353.61 335.98 357.7 326.5 364.55 310.51C377.31 280.81 364.55 269.05 364.55 269.05Z" fill="#455A64"/>
<path d="M324.88 398.62L324.3 406.91C324.82 407.754 325.56 408.44 326.441 408.895C327.322 409.35 328.311 409.555 329.3 409.49C332.96 409.49 334.24 407.12 334.24 407.12C334.24 407.12 334.97 404.81 336.24 400.92C334.31 401.554 332.247 401.676 330.256 401.273C328.264 400.869 326.412 399.955 324.88 398.62Z" fill="#945959"/>
<path d="M336.77 224.62C336.77 224.62 328.15 224.95 325.14 231.27C322.13 237.59 317.83 250.36 317.83 250.36L329.39 252.96L336.77 224.62Z" fill="#6A55EB"/>
<path opacity="0.2" d="M336.77 224.62C336.77 224.62 328.15 224.95 325.14 231.27C322.13 237.59 317.83 250.36 317.83 250.36L329.39 252.96L336.77 224.62Z" fill="white"/>
<path d="M355.2 225.92L364.55 227.54V248.54L361.63 259.7C361.63 259.7 362.18 265.7 364.55 269.02C364.55 269.02 347.91 281.64 329.08 269.02C329.08 269.02 329.81 258.02 329.81 254.94C329.81 254.94 323.43 251.1 324.06 245.25C324.69 239.4 336.77 224.59 336.77 224.59L343.41 224.5L355.2 225.92Z" fill="#6A55EB"/>
<path opacity="0.4" d="M355.2 225.92L364.55 227.54V248.54L361.63 259.7C361.63 259.7 362.18 265.7 364.55 269.02C364.55 269.02 347.91 281.64 329.08 269.02C329.08 269.02 329.81 258.02 329.81 254.94C329.81 254.94 323.43 251.1 324.06 245.25C324.69 239.4 336.77 224.59 336.77 224.59L343.41 224.5L355.2 225.92Z" fill="white"/>
<path d="M339.13 183C339.13 183 331.05 180.2 329.08 188.47C327.11 196.74 333.19 204.76 324.08 207.47C324.08 207.47 329.45 211.94 334.17 203.6L338.17 220.6C338.17 220.6 338.17 221.53 336.76 222.24C336.76 222.24 359.76 227.34 364.11 215.89C364.722 216.55 365.139 217.367 365.315 218.249C365.492 219.131 365.421 220.045 365.11 220.89C365.11 220.89 371.88 218.15 369.98 209.38C369.98 209.38 375.33 209.23 376.6 204.87C376.6 204.87 368.04 205.28 368.09 195.87C368.15 184.95 362.4 186.53 362.4 186.53C362.4 186.53 355.37 176.06 339.13 183Z" fill="#263238"/>
<path d="M343.41 217.24V224.53C343.41 224.53 336.86 235.82 339.41 236.53C344.29 237.9 355.15 225.9 355.15 225.9V210.5L343.41 217.24Z" fill="#945959"/>
<path d="M355.07 208.06V208.49C352.44 218.85 345.61 221.11 343.41 221.64L343.33 205.64L354.73 205.59L355.07 208.06Z" fill="#703838"/>
<path d="M344.15 185C339.8 185.36 330.75 188.54 330.61 200C330.47 211.46 332.23 220.23 338.18 220.59C344.13 220.95 357.43 215.59 358.04 200.69C358.65 185.79 348.4 184.63 344.15 185Z" fill="#945959"/>
<path d="M338.65 204.61L338.75 211.35L334.79 210.2L338.65 204.61Z" fill="#703838"/>
<path d="M344.57 204.43C344.541 204.774 344.383 205.095 344.128 205.329C343.874 205.563 343.541 205.693 343.195 205.693C342.849 205.693 342.516 205.563 342.262 205.329C342.007 205.095 341.85 204.774 341.82 204.43C341.817 204.065 341.959 203.713 342.213 203.451C342.468 203.189 342.815 203.038 343.18 203.03C343.364 203.027 343.547 203.062 343.718 203.131C343.888 203.201 344.043 203.304 344.173 203.435C344.302 203.565 344.404 203.721 344.473 203.892C344.541 204.063 344.574 204.246 344.57 204.43Z" fill="#263238"/>
<path d="M335.53 203.6C335.534 203.873 335.457 204.141 335.309 204.37C335.16 204.599 334.947 204.779 334.697 204.887C334.446 204.995 334.169 205.026 333.901 204.977C333.632 204.928 333.384 204.8 333.189 204.61C332.993 204.42 332.858 204.176 332.801 203.909C332.744 203.642 332.767 203.364 332.868 203.11C332.969 202.857 333.142 202.639 333.367 202.484C333.592 202.329 333.857 202.244 334.13 202.24C334.312 202.236 334.492 202.268 334.661 202.335C334.83 202.401 334.984 202.5 335.115 202.627C335.245 202.754 335.349 202.905 335.42 203.072C335.491 203.239 335.529 203.418 335.53 203.6Z" fill="#263238"/>
<path d="M332.44 200.78L335.1 199.15C335.1 199.15 334.1 198.09 333.04 198.75C332.747 198.988 332.532 199.31 332.425 199.672C332.318 200.034 332.323 200.421 332.44 200.78Z" fill="#6A55EB"/>
<path d="M332.44 200.78L335.1 199.15C335.1 199.15 334.1 198.09 333.04 198.75C332.747 198.988 332.532 199.31 332.425 199.672C332.318 200.034 332.323 200.421 332.44 200.78Z" fill="#263238"/>
<path d="M351.33 203.81C351.33 203.81 351.06 208.64 353.84 208.64H359.29V199.43C359.29 189.1 351.46 178.31 334.79 186.84C334.79 186.84 334 200.63 351.33 203.81Z" fill="#263238"/>
<path d="M353.82 208.07C353.794 207.038 353.999 206.013 354.42 205.07C354.626 204.469 355.004 203.942 355.507 203.555C356.011 203.167 356.617 202.936 357.25 202.89C360.5 202.84 360.9 205.97 360.85 207.08C360.7 210 358.31 213.13 353.85 213.2L353.82 208.07Z" fill="#945959"/>
<path d="M342.26 213.48C342.26 213.703 342.194 213.922 342.07 214.108C341.945 214.294 341.769 214.438 341.562 214.524C341.356 214.61 341.129 214.632 340.91 214.588C340.69 214.545 340.489 214.437 340.331 214.279C340.173 214.121 340.065 213.92 340.022 213.7C339.978 213.481 340.001 213.254 340.086 213.048C340.172 212.841 340.316 212.665 340.502 212.54C340.688 212.416 340.907 212.35 341.13 212.35C341.43 212.35 341.717 212.469 341.929 212.681C342.141 212.893 342.26 213.18 342.26 213.48Z" fill="#703838"/>
<path d="M364.55 227.54C364.55 227.54 356.87 230.33 360.23 243.77C363.59 257.21 366.82 268.46 366.82 268.46L353.45 276.46C353.45 276.46 358.31 278.79 357.22 287.36C357.22 287.36 374.7 283.04 378.75 280.1C382.8 277.16 381.42 268.57 380.46 263.84C379.5 259.11 374.98 239.91 374.29 237.3C373.6 234.69 371.56 228.76 364.55 227.54Z" fill="#6A55EB"/>
<path opacity="0.2" d="M364.55 227.54C364.55 227.54 356.87 230.33 360.23 243.77C363.59 257.21 366.82 268.46 366.82 268.46L353.45 276.46C353.45 276.46 358.31 278.79 357.22 287.36C357.22 287.36 374.7 283.04 378.75 280.1C382.8 277.16 381.42 268.57 380.46 263.84C379.5 259.11 374.98 239.91 374.29 237.3C373.6 234.69 371.56 228.76 364.55 227.54Z" fill="white"/>
<path d="M366.82 268.46C369.468 268.236 372.116 268.886 374.36 270.31C373.366 269.117 372.125 268.153 370.724 267.483C369.322 266.813 367.793 266.454 366.24 266.43L366.82 268.46Z" fill="#6A55EB"/>
<path d="M311.71 300.69L277.43 280.69C277.353 280.645 277.29 280.581 277.245 280.504C277.201 280.426 277.178 280.339 277.178 280.25C277.178 280.161 277.201 280.074 277.245 279.996C277.29 279.919 277.353 279.855 277.43 279.81L315.43 256.39L311.71 300.69Z" fill="#6A55EB"/>
<path opacity="0.4" d="M311.71 300.69L277.43 280.69C277.353 280.645 277.29 280.581 277.245 280.504C277.201 280.426 277.178 280.339 277.178 280.25C277.178 280.161 277.201 280.074 277.245 279.996C277.29 279.919 277.353 279.855 277.43 279.81L315.43 256.39L311.71 300.69Z" fill="black"/>
<path d="M311.71 300.69L349.93 278.56V268.5L311.71 290.54V300.69Z" fill="#6A55EB"/>
<path opacity="0.2" d="M311.71 300.69L349.93 278.56V268.5L311.71 290.54V300.69Z" fill="black"/>
<path d="M342.47 280.11L327.38 288.83C326.38 289.41 325.56 288.83 325.56 287.45C325.569 286.769 325.739 286.1 326.055 285.497C326.371 284.894 326.825 284.375 327.38 283.98L342.47 275.27C343.47 274.69 344.29 275.27 344.29 276.64C344.278 277.32 344.108 277.988 343.792 278.591C343.476 279.194 343.023 279.714 342.47 280.11Z" fill="#E6E6E6"/>
<path d="M323.34 288.73C323.3 289.459 323.09 290.168 322.725 290.801C322.36 291.433 321.851 291.971 321.24 292.37C320.08 293.04 319.15 292.49 319.15 291.16C319.188 290.432 319.397 289.723 319.76 289.09C320.123 288.458 320.63 287.92 321.24 287.52C322.4 286.85 323.34 287.39 323.34 288.73Z" fill="#E6E6E6"/>
<path d="M311.71 290.54L277.56 274.49C277.478 274.446 277.41 274.382 277.363 274.302C277.315 274.223 277.29 274.132 277.29 274.04C277.29 273.948 277.315 273.857 277.363 273.778C277.41 273.698 277.478 273.633 277.56 273.59L314.18 251.81C314.387 251.685 314.621 251.614 314.862 251.604C315.104 251.593 315.343 251.644 315.56 251.75L349.97 268.5L311.71 290.54Z" fill="#6A55EB"/>
<path d="M279.76 275.52V279.84L308.05 295.84V288.82L279.76 275.52Z" fill="#F5F5F5"/>
<path d="M308.05 295.84L311.71 293.56V290.54L308.05 288.82V295.84Z" fill="#E0E0E0"/>
<path d="M357.22 287.38C357.22 287.38 342.22 290.61 340.83 290.95C339.44 291.29 332.19 293.56 326.22 292.25L340.96 283.75C340.96 283.75 333.44 281.91 334.52 279.57C334.93 278.68 348.92 279.16 348.92 279.16L353.45 276.48C353.45 276.48 361.47 277.51 357.22 287.38Z" fill="#945959"/>
<path d="M277.27 270.33V259.18H339.59C339.81 259.18 346.5 262.66 349.46 264.18C349.593 264.255 349.704 264.364 349.781 264.495C349.859 264.627 349.899 264.777 349.899 264.93C349.899 265.083 349.859 265.233 349.781 265.365C349.704 265.496 349.593 265.605 349.46 265.68L312.53 286.56C312.271 286.708 311.979 286.79 311.681 286.798C311.383 286.807 311.087 286.742 310.82 286.61L277.27 270.33Z" fill="#6A55EB"/>
<path opacity="0.4" d="M277.27 270.33V259.18H339.59C339.81 259.18 346.5 262.66 349.46 264.18C349.593 264.255 349.704 264.364 349.781 264.495C349.859 264.627 349.899 264.777 349.899 264.93C349.899 265.083 349.859 265.233 349.781 265.365C349.704 265.496 349.593 265.605 349.46 265.68L312.53 286.56C312.271 286.708 311.979 286.79 311.681 286.798C311.383 286.807 311.087 286.742 310.82 286.61L277.27 270.33Z" fill="black"/>
<path d="M311.71 283.95L347.07 264.07V259.75L311.71 278.56V283.95Z" fill="#E0E0E0"/>
<path d="M277.27 270.33L286.51 264.92L277.27 259.18V270.33Z" fill="#6A55EB"/>
<path opacity="0.6" d="M277.27 270.33L286.51 264.92L277.27 259.18V270.33Z" fill="black"/>
<path d="M283.11 262.8V268.96L311.71 283.95V278.56L283.11 262.8Z" fill="#F5F5F5"/>
<path d="M277.27 259.18L310.52 279C310.881 279.219 311.293 279.341 311.716 279.353C312.138 279.366 312.557 279.268 312.93 279.07L349.59 259.87C349.719 259.799 349.828 259.696 349.905 259.57C349.982 259.445 350.025 259.301 350.03 259.154C350.035 259.007 350.002 258.861 349.933 258.731C349.865 258.6 349.764 258.49 349.64 258.41L316.19 236.67L277.27 259.18Z" fill="#6A55EB"/>
<path d="M311.71 275.53L277.43 255.53C277.353 255.485 277.29 255.421 277.245 255.344C277.201 255.266 277.178 255.179 277.178 255.09C277.178 255.001 277.201 254.914 277.245 254.836C277.29 254.759 277.353 254.695 277.43 254.65L315.43 231.23L311.71 275.53Z" fill="#6A55EB"/>
<path opacity="0.4" d="M311.71 275.53L277.43 255.53C277.353 255.485 277.29 255.421 277.245 255.344C277.201 255.266 277.178 255.179 277.178 255.09C277.178 255.001 277.201 254.914 277.245 254.836C277.29 254.759 277.353 254.695 277.43 254.65L315.43 231.23L311.71 275.53Z" fill="black"/>
<path d="M311.71 275.52L349.93 253.4V243.34L311.71 265.38V275.52Z" fill="#6A55EB"/>
<path opacity="0.2" d="M311.71 275.52L349.93 253.4V243.34L311.71 265.38V275.52Z" fill="black"/>
<path d="M342.47 255L327.38 263.71C326.38 264.29 325.56 263.71 325.56 262.34C325.569 261.659 325.739 260.99 326.055 260.387C326.371 259.784 326.825 259.265 327.38 258.87L342.47 250.15C343.47 249.58 344.29 250.15 344.29 251.53C344.278 252.21 344.108 252.878 343.792 253.481C343.476 254.084 343.023 254.604 342.47 255Z" fill="#E6E6E6"/>
<path d="M323.34 263.57C323.302 264.298 323.092 265.007 322.727 265.638C322.362 266.269 321.852 266.804 321.24 267.2C320.08 267.87 319.15 267.33 319.15 265.99C319.189 265.263 319.398 264.556 319.761 263.925C320.124 263.294 320.631 262.758 321.24 262.36C322.4 261.69 323.34 262.23 323.34 263.57Z" fill="#E6E6E6"/>
<path d="M311.71 265.38L277.56 249.38C277.479 249.335 277.411 249.269 277.364 249.189C277.317 249.109 277.292 249.018 277.292 248.925C277.292 248.832 277.317 248.741 277.364 248.661C277.411 248.581 277.479 248.515 277.56 248.47L314.18 226.69C314.392 226.574 314.629 226.514 314.87 226.514C315.111 226.514 315.348 226.574 315.56 226.69L349.97 243.44L311.71 265.38Z" fill="#6A55EB"/>
<path d="M279.76 250.36V254.68L308.05 270.68V263.66L279.76 250.36Z" fill="#F5F5F5"/>
<path d="M308.05 270.68L311.71 268.39V265.38L308.05 263.66V270.68Z" fill="#E0E0E0"/>
</svg>
