<svg width="26" height="26" viewBox="0 0 26 26" fill="none" xmlns="http://www.w3.org/2000/svg">
<path d="M1.24371 1.24371C1.68909 0.798464 2.29307 0.54834 2.92283 0.54834C3.5526 0.54834 4.15658 0.798464 4.60196 1.24371L13 9.64171L21.398 1.24371C21.8459 0.811082 22.4458 0.571695 23.0685 0.577107C23.6913 0.582518 24.2869 0.832294 24.7273 1.27264C25.1676 1.71298 25.4174 2.30866 25.4228 2.93138C25.4282 3.5541 25.1888 4.15403 24.7562 4.60196L16.3582 13L24.7562 21.398C25.1888 21.8459 25.4282 22.4458 25.4228 23.0685C25.4174 23.6913 25.1676 24.2869 24.7273 24.7273C24.2869 25.1676 23.6913 25.4174 23.0685 25.4228C22.4458 25.4282 21.8459 25.1888 21.398 24.7562L13 16.3582L4.60196 24.7562C4.15403 25.1888 3.5541 25.4282 2.93138 25.4228C2.30866 25.4174 1.71298 25.1676 1.27264 24.7273C0.832294 24.2869 0.582518 23.6913 0.577107 23.0685C0.571695 22.4458 0.811082 21.8459 1.24371 21.398L9.64171 13L1.24371 4.60196C0.798464 4.15658 0.54834 3.5526 0.54834 2.92283C0.54834 2.29307 0.798464 1.68909 1.24371 1.24371Z" fill="#999999"/>
</svg>
